<svg xmlns="http://www.w3.org/2000/svg" viewBox="0 0 463 386.83"><defs><style>.cls-1{fill:#ba112a;}.cls-1,.cls-2,.cls-3,.cls-4,.cls-5,.cls-6{stroke:#000;stroke-miterlimit:10;}.cls-1,.cls-6{stroke-width:6px;}.cls-2,.cls-4{fill:linen;}.cls-2{stroke-width:5px;}.cls-3,.cls-5{fill:none;}.cls-3{stroke-width:8px;}.cls-4,.cls-5{stroke-width:7px;}</style></defs><title>Asset 1</title><g id="Layer_2" data-name="Layer 2"><g id="Layer_1-2" data-name="Layer 1"><path class="cls-1" d="M190.06,22.68c5.38-5.26,8.16-7.91,12.29-9s8.78.57,16.74,3c3.28,1,5.58,1.86,7.57,2.61,15.49,5.77,15.53,5,22.71,8.09,8.84,3.79,10.16,5.16,21.88,10.28,8.29,3.62,12.42,5.48,16.47,6.32,8.85,1.83,14.64.37,24.21-.71,0,0,14.31-1.08,30.53-.78,8.91.17,15.31.29,23.37,1.47,13.89,2.05,23.45,6,42.56,13.84s23.45,11.32,26.19,13.81a50.18,50.18,0,0,1,13.64,20.24c2.18,6.19,5,14.71,1,20.39-4.54,6.44-16.93,7.79-29.85,2.29-18.41-9.78-43.43-2.29-43.47-2.21s30-3.55,42.71,2.54c15.59,7.48,21.74,8.15,29.83,15.83a36.53,36.53,0,0,1,8.81,11.51c4.61,10.06,2.56,20.29.25,28.86a214.22,214.22,0,0,1-26.3,58.66c-13,19-20.73,30.34-36.66,39.7-7.11,4.18-24.34,14-45.85,11.15-1.87-.25-8-1.15-21.28-6.92a207.32,207.32,0,0,1-48.93-30c-20.31-16.77-32.56-33.16-40.88-44.46a282.48,282.48,0,0,1-17.46-26.7c-9.2-5.36-22.28-13.19-37.69-23.23-31.52-20.51-35.26-25.79-37-31.69-2.79-9.66,2.26-21.53,12.34-45.28A182.07,182.07,0,0,1,172,45.12,124.26,124.26,0,0,1,190.06,22.68Z"/><path class="cls-1" d="M375.89,112.26c-4.48,1.65-32.36,12.44-43.07,41.68-1.83,5-7.68,21.71-1.39,41.68a63.75,63.75,0,0,0,19.45,29.18"/><path class="cls-1" d="M324.48,84.47c6.95,13.89,37,22.23,51.41,27.79"/><path class="cls-2" d="M374.18,80.84c-.35-6.79-.88-14-1.63-21.24-.16-1.61-.44-4-.76-6.6-.2-1.53-.42-3.15-.64-4.81-.9-6.6-1.85-11.14-2.49-16.89a21,21,0,0,0-6.1-12.77A17.93,17.93,0,0,0,357,13C320.94-8.66,158.89,1.33,106.5,60.66,99.18,69,97.84,81.25,97.84,81.25,95.15,96,100.9,108.6,108.39,139.52c5.53,22.82,9.41,38.87,21.09,57.71,12.27,19.79,27.3,33.21,41.06,45.5,12.82,11.45,19.24,17.19,26.64,21.1,30.63,16.17,64.65,6.43,91-1.12,23.66-6.76,52.49-15,67.7-41.07,3.05-5.19,4.7-10.1,7.78-20a223.37,223.37,0,0,0,7.2-29.92c1.2-7.08,2-13.92,2.53-20.75.82-10.25,1.08-20.48,1.36-31.45C374.76,119.54,375.3,102.36,374.18,80.84ZM352,45.72c-3.3,6.15-9.46,11.74-16.76,16.62-16.34,11-38.35,18.45-46.51,21.12-35.6,11.68-62.07,15.4-72.14,16.65-19.93,2.46-33.08,2.34-46.63,2.21,0,0-11.48-.11-32.18-3.32-15-2.33-22.44-4.62-24.42-10a17.94,17.94,0,0,1,0-10,19.36,19.36,0,0,1,3.33-6.67c.4-.12.81-.23,1.2-.36a.29.29,0,0,1-.2-.5c1.27-1.08,2.86-2.43,4.75-3.94a216.7,216.7,0,0,1,29.76-19.61c23.17-12.35,52.23-18.53,69.93-22.2,17.36-3.6,29.71-5,54.4-7.77,2.52-.29,38.27-4.08,64.37,4.45,4.47,1.46,11.22,4.11,13.32,10C356.2,37.9,353.16,43.59,352,45.72Z"/><path class="cls-2" d="M370.87,171.74c1.2-7.08,2-13.92,2.53-20.75,21.38-12.17,30.44-35.45,23.56-51.43C391.57,87,378.21,82.12,374.18,80.84c-.35-6.79-.88-14-1.63-21.24-.16-1.61-.44-4-.76-6.6,12.17,2.31,28.06,10.38,37.39,29.9,9.63,20.17,7.21,15,7.76,30C417.42,125.54,409.26,152.87,370.87,171.74Z"/><path class="cls-3" d="M370.87,171.74l-.54.26"/><path class="cls-3" d="M371.79,53l-.35-.07"/><path class="cls-3" d="M373.4,151l-.29.17"/><path class="cls-3" d="M374.18,80.84l-.52-.15"/><path class="cls-4" d="M352,45.72c-3.3,6.15-9.46,11.74-16.76,16.62a243.26,243.26,0,0,0-28.76-6.63,270.91,270.91,0,0,0-34.4-3.34c-15-.69-26.25-.31-35.51,0-8.3.3-24.79.92-44.41,3.34-3.48.43-7.29,1-11.39,1.64-1.71.26-3.46.57-5.25.89-.5.08-1,.16-1.5.26l-3.36.61-2.6.5q-4.28.84-8.8,1.81l-2.39.51c-1.6.35-3.21.71-4.85,1.09s-3.3.76-5,1.16l-2.53.62c-3.43.83-6.94,1.72-10.49,2.66-1.2.31-2.39.64-3.59,1l-1.61.45-2.68.75-2.71.76L118,72h-.08a.29.29,0,0,1-.2-.5c1.27-1.08,2.86-2.43,4.75-3.94a216.7,216.7,0,0,1,29.76-19.61c23.17-12.35,52.23-18.53,69.93-22.2,17.36-3.6,29.71-5,54.4-7.77,2.52-.29,38.27-4.08,64.37,4.45,4.47,1.46,11.22,4.11,13.32,10C356.2,37.9,353.16,43.59,352,45.72Z"/><path class="cls-5" d="M144.53,64.8c-3.43.84-6.94,1.73-10.49,2.66C137.59,66.52,141.1,65.63,144.53,64.8Z"/><path class="cls-6" d="M335.26,62.34c-16.34,11-38.35,18.45-46.51,21.12-35.6,11.68-62.07,15.4-72.14,16.65-19.93,2.46-33.08,2.34-46.63,2.21,0,0-11.48-.11-32.18-3.32-15-2.33-22.44-4.62-24.42-10a17.94,17.94,0,0,1,0-10,19.36,19.36,0,0,1,3.33-6.67c.4-.12.81-.23,1.2-.36H118l5.46-1.6,2.71-.76,2.68-.75,1.61-.45c1.2-.32,2.39-.65,3.59-1,3.55-.94,7.06-1.83,10.49-2.66l2.53-.62c1.68-.4,3.33-.79,5-1.16s3.25-.74,4.85-1.09l2.39-.51q4.53-1,8.8-1.81l2.6-.5L174,58.5c.5-.1,1-.18,1.5-.26,1.79-.32,3.55-.61,5.25-.89,4.1-.67,7.91-1.21,11.39-1.64,19.62-2.42,36.11-3,44.41-3.34,9.26-.31,20.52-.69,35.51,0a270.91,270.91,0,0,1,34.4,3.34A243.26,243.26,0,0,1,335.26,62.34Z"/><path class="cls-1" d="M48.34,125.49c5.38-5.25,8.16-7.9,12.29-9s8.79.56,16.74,3c3.28,1,5.58,1.86,7.57,2.6,15.49,5.78,15.53,5,22.71,8.1,8.85,3.79,10.16,5.15,21.88,10.27C137.82,144,142,145.9,146,146.74c8.85,1.83,14.64.36,24.21-.71,0,0,14.31-1.08,30.53-.78,8.92.16,15.31.28,23.37,1.47,13.89,2,23.45,6,42.56,13.84s23.45,11.31,26.19,13.8a50.06,50.06,0,0,1,13.64,20.25c2.18,6.18,5,14.7,1,20.38-4.55,6.44-16.93,7.8-29.86,2.29-18.41-9.77-22.52-11.86-22.56-11.78a176.74,176.74,0,0,0,21.8,12.12c15.59,7.48,21.74,8.14,29.83,15.82A36.38,36.38,0,0,1,315.52,245c4.61,10.06,2.56,20.29.26,28.86a214.57,214.57,0,0,1-26.31,58.67c-13,19-20.73,30.33-36.65,39.69-7.12,4.18-24.35,14-45.86,11.15-1.87-.25-8-1.14-21.27-6.92a207.1,207.1,0,0,1-48.94-30c-20.31-16.76-32.56-33.16-40.88-44.45A284.43,284.43,0,0,1,78.41,275.2C69.21,269.85,56.13,262,40.72,252c-31.51-20.52-35.26-25.79-37-31.7C1,210.62,6,198.75,16.1,175a181.1,181.1,0,0,1,14.17-27.07A124.27,124.27,0,0,1,48.34,125.49Z"/><path class="cls-1" d="M77.25,119.09c-14.65,14.26-25.71,22-40.57,53.19-7.86,16.46-18,46.85-18.36,64.22"/><path class="cls-1" d="M131.73,141.26c-20.49,10.7-43.5,34.56-57.47,74.21-6.61,18.77-10.77,34.62-9.62,51.32"/><path class="cls-1" d="M146,146.74c-10.57,9.31-23,18.43-35,35.33C97.73,200.8,99.67,200.57,94.5,212c-16.42,36.21-14.18,53.33-13.29,67.42"/></g></g></svg>